/* XPM */
static char *skel364[] = {
/* columns rows colors chars-per-pixel */
"64 64 6 1 ",
"  c #14182E",
". c #AD2F45",
"X c #C8D45D",
"o c #686F99",
"O c #A3A7C2",
"+ c #DFE0E8",
/* pixels */
"XXXXXXXXXXXXXXXXXXXXXXXXXXXXXXXXXXXXXXXXXXXXXXXXXXXXXXXXXXXXXXXX",
"XXXXXXXXXXXXXXXXXXXXXXXXXXXXXXXXXXXXXXXXXXXXXXXXXXXXXXXXXXXXXXXX",
"XXXXXXXXXXXXXXXXXXXXXXXXXXXXXXXXXXXXXXXXXXXXXXXXXXXXXXXXXXXXXXXX",
"XXXXXXXXXXXXXXXXXXXXXXXXXXXXXXXXXXXXXXXXXXXXXXXXXXXXXXXXXXXXXXXX",
"XXXXXXXXXXXXXXXXXXXXXXXXXXXXXXXXXXXXXXXXXXXXXXXXXXXXXXXXXXXXXXXX",
"XXXXXXXXXXXXXXXXXXXXXXXXXXXXXXXXXXXXXXXXXXXXXXXXXXXXXXXXXXXXXXXX",
"XXXXXXXXXXXXXXXXXXXXXXXXXXXXXXXXXXXXXXXXXXXXXXXXXXXXXXXXXXXXXXXX",
"XXXXXXXXXXXXXXXXXXXXXXXXXXXXXXXXXXXXXXXXXXXXXXXXXXXXXXXXXXXXXXXX",
"XXXXXXXXXXXXXXXXXXXX                        XXXXXXXXXXXXXXXXXXXX",
"XXXXXXXXXXXXXXXXXXXX                        XXXXXXXXXXXXXXXXXXXX",
"XXXXXXXXXXXXXXXXXXXX                        XXXXXXXXXXXXXXXXXXXX",
"XXXXXXXXXXXXXXXXXXXX                        XXXXXXXXXXXXXXXXXXXX",
"XXXXXXXXXXXXXXXX    OOOO++++++++++++++++OOOO    XXXXXXXXXXXXXXXX",
"XXXXXXXXXXXXXXXX    OOOO++++++++++++++++OOOO    XXXXXXXXXXXXXXXX",
"XXXXXXXXXXXXXXXX    OOOO++++++++++++++++OOOO    XXXXXXXXXXXXXXXX",
"XXXXXXXXXXXXXXXX    OOOO++++++++++++++++OOOO    XXXXXXXXXXXXXXXX",
"XXXXXXXXXXXX    OOOO++++++++++++++++++++++++OOOO    XXXXXXXXXXXX",
"XXXXXXXXXXXX    OOOO++++++++++++++++++++++++OOOO    XXXXXXXXXXXX",
"XXXXXXXXXXXX    OOOO++++++++++++++++++++++++OOOO    XXXXXXXXXXXX",
"XXXXXXXXXXXX    OOOO++++++++++++++++++++++++OOOO    XXXXXXXXXXXX",
"XXXXXXXXXXXX    OOOO++++++++++++++++++++++++OOOO    XXXXXXXXXXXX",
"XXXXXXXXXXXX    OOOO++++++++++++++++++++++++OOOO    XXXXXXXXXXXX",
"XXXXXXXXXXXX    OOOO++++++++++++++++++++++++OOOO    XXXXXXXXXXXX",
"XXXXXXXXXXXX    OOOO++++++++++++++++++++++++OOOO    XXXXXXXXXXXX",
"XXXXXXXXXXXX    ooooOOOO++++++++++++++++OOOOoooo    XXXXXXXXXXXX",
"XXXXXXXXXXXX    ooooOOOO++++++++++++++++OOOOoooo    XXXXXXXXXXXX",
"XXXXXXXXXXXX    ooooOOOO++++++++++++++++OOOOoooo    XXXXXXXXXXXX",
"XXXXXXXXXXXX    ooooOOOO++++++++++++++++OOOOoooo    XXXXXXXXXXXX",
"XXXXXXXXXXXX    OOOO    OOOO++++++++OOOO    OOOO    XXXXXXXXXXXX",
"XXXXXXXXXXXX    OOOO    OOOO++++++++OOOO    OOOO    XXXXXXXXXXXX",
"XXXXXXXXXXXX    OOOO    OOOO++++++++OOOO    OOOO    XXXXXXXXXXXX",
"XXXXXXXXXXXX    OOOO    OOOO++++++++OOOO    OOOO    XXXXXXXXXXXX",
"XXXXXXXXXXXX    OOOO        OOOOOOOO        OOOO    XXXXXXXXXXXX",
"XXXXXXXXXXXX    OOOO        OOOOOOOO        OOOO    XXXXXXXXXXXX",
"XXXXXXXXXXXX    OOOO        OOOOOOOO        OOOO    XXXXXXXXXXXX",
"XXXXXXXXXXXX    OOOO        OOOOOOOO        OOOO    XXXXXXXXXXXX",
"XXXXXXXXXXXX    OOOO    ....++++++++....    OOOO    XXXXXXXXXXXX",
"XXXXXXXXXXXX    OOOO    ....++++++++....    OOOO    XXXXXXXXXXXX",
"XXXXXXXXXXXX    OOOO    ....++++++++....    OOOO    XXXXXXXXXXXX",
"XXXXXXXXXXXX    OOOO    ....++++++++....    OOOO    XXXXXXXXXXXX",
"XXXXXXXXXXXXXXXX    OOOO++++oooooooo++++OOOO    XXXXXXXXXXXXXXXX",
"XXXXXXXXXXXXXXXX    OOOO++++oooooooo++++OOOO    XXXXXXXXXXXXXXXX",
"XXXXXXXXXXXXXXXX    OOOO++++oooooooo++++OOOO    XXXXXXXXXXXXXXXX",
"XXXXXXXXXXXXXXXX    OOOO++++oooooooo++++OOOO    XXXXXXXXXXXXXXXX",
"XXXXXXXXXXXX        ++++    ++++++++    ++++        XXXXXXXXXXXX",
"XXXXXXXXXXXX        ++++    ++++++++    ++++        XXXXXXXXXXXX",
"XXXXXXXXXXXX        ++++    ++++++++    ++++        XXXXXXXXXXXX",
"XXXXXXXXXXXX        ++++    ++++++++    ++++        XXXXXXXXXXXX",
"XXXXXXXX    ++++++++                        ++++++++    XXXXXXXX",
"XXXXXXXX    ++++++++                        ++++++++    XXXXXXXX",
"XXXXXXXX    ++++++++                        ++++++++    XXXXXXXX",
"XXXXXXXX    ++++++++                        ++++++++    XXXXXXXX",
"XXXX    ++++OOOO    OOOO++++oooooooo++++OOOO    OOOO++++    XXXX",
"XXXX    ++++OOOO    OOOO++++oooooooo++++OOOO    OOOO++++    XXXX",
"XXXX    ++++OOOO    OOOO++++oooooooo++++OOOO    OOOO++++    XXXX",
"XXXX    ++++OOOO    OOOO++++oooooooo++++OOOO    OOOO++++    XXXX",
"XXXX    ++++++++        ooooOOOOOOOOoooo        ++++++++    XXXX",
"XXXX    ++++++++        ooooOOOOOOOOoooo        ++++++++    XXXX",
"XXXX    ++++++++        ooooOOOOOOOOoooo        ++++++++    XXXX",
"XXXX    ++++++++        ooooOOOOOOOOoooo        ++++++++    XXXX",
"XXXXXXXX            OOOOOOOO        OOOOOOOO            XXXXXXXX",
"XXXXXXXX            OOOOOOOO        OOOOOOOO            XXXXXXXX",
"XXXXXXXX            OOOOOOOO        OOOOOOOO            XXXXXXXX",
"XXXXXXXX            OOOOOOOO        OOOOOOOO            XXXXXXXX"
};
