/* XPM */
static char *dummy[]={
"16 16 5 1",
"# c #14182e",
"c c #686f99",
"a c #a3a7c2",
". c #c8d45d",
"b c #dfe0e8",
"................",
".....######.....",
"....#abbbba#....",
"...#abbbbbba#...",
"...#abbbbbba#...",
"...#acbbbbca#...",
"...#caaaaaac#...",
"...#caabbaac#...",
"...#caaaaaac#...",
"....#caaaac#....",
"...####cc####...",
"..#bbaabbaabb#..",
".#ba#ccbbcc#ab#.",
".#bb##aaaa##bb#.",
"..###cc##cc###..",
".....##..##....."};
