/* XPM */
static char *dummy[]={
"16 16 6 1",
"# c #14182e",
"d c #ad2f45",
". c #c8d45d",
"c c #f0b541",
"b c #f5ffe8",
"a c #ffee83",
"................",
"..##........##..",
".#a##########a#.",
".#a###b##b###a#.",
".#aaaca##acaaa#.",
".######aa######.",
".##############.",
".#c##########c#.",
".#c##########c#.",
".#c##########c#.",
".#c##########c#.",
".#a#dddddddd#a#.",
".#a#dddddddd#a#.",
".#a##########a#.",
".#aaaaaaaaaaaa#.",
".#c##########c#."};
