/* XPM */
static char *chest164[] = {
/* columns rows colors chars-per-pixel */
"64 64 7 1 ",
"  c #14182E",
". c #E64539",
"X c #AD2F45",
"o c #F0B541",
"O c #C8D45D",
"+ c #FFEE83",
"@ c #F5FFE8",
/* pixels */
"OOOOOOOOOOOOOOOOOOOOOOOOOOOOOOOOOOOOOOOOOOOOOOOOOOOOOOOOOOOOOOOO",
"OOOOOOOOOOOOOOOOOOOOOOOOOOOOOOOOOOOOOOOOOOOOOOOOOOOOOOOOOOOOOOOO",
"OOOOOOOOOOOOOOOOOOOOOOOOOOOOOOOOOOOOOOOOOOOOOOOOOOOOOOOOOOOOOOOO",
"OOOOOOOOOOOOOOOOOOOOOOOOOOOOOOOOOOOOOOOOOOOOOOOOOOOOOOOOOOOOOOOO",
"OOOOOOOOOOOOOOOOOOOOOOOOOOOOOOOOOOOOOOOOOOOOOOOOOOOOOOOOOOOOOOOO",
"OOOOOOOOOOOOOOOOOOOOOOOOOOOOOOOOOOOOOOOOOOOOOOOOOOOOOOOOOOOOOOOO",
"OOOOOOOOOOOOOOOOOOOOOOOOOOOOOOOOOOOOOOOOOOOOOOOOOOOOOOOOOOOOOOOO",
"OOOOOOOOOOOOOOOOOOOOOOOOOOOOOOOOOOOOOOOOOOOOOOOOOOOOOOOOOOOOOOOO",
"OOOOOOOOOOOOOOOOOOOOOOOOOOOOOOOOOOOOOOOOOOOOOOOOOOOOOOOOOOOOOOOO",
"OOOOOOOOOOOOOOOOOOOOOOOOOOOOOOOOOOOOOOOOOOOOOOOOOOOOOOOOOOOOOOOO",
"OOOOOOOOOOOOOOOOOOOOOOOOOOOOOOOOOOOOOOOOOOOOOOOOOOOOOOOOOOOOOOOO",
"OOOOOOOOOOOOOOOOOOOOOOOOOOOOOOOOOOOOOOOOOOOOOOOOOOOOOOOOOOOOOOOO",
"OOOOOOOO        OOOOOOOOOOOOOOOOOOOOOOOOOOOOOOOO        OOOOOOOO",
"OOOOOOOO        OOOOOOOOOOOOOOOOOOOOOOOOOOOOOOOO        OOOOOOOO",
"OOOOOOOO        OOOOOOOOOOOOOOOOOOOOOOOOOOOOOOOO        OOOOOOOO",
"OOOOOOOO        OOOOOOOOOOOOOOOOOOOOOOOOOOOOOOOO        OOOOOOOO",
"OOOO    ++++                                        ++++    OOOO",
"OOOO    ++++                                        ++++    OOOO",
"OOOO    ++++                                        ++++    OOOO",
"OOOO    ++++                                        ++++    OOOO",
"OOOO    ++++    XXXXXXXXXXXXXXXXXXXXXXXXXXXXXXXX    ++++    OOOO",
"OOOO    ++++    XXXXXXXXXXXXXXXXXXXXXXXXXXXXXXXX    ++++    OOOO",
"OOOO    ++++    XXXXXXXXXXXXXXXXXXXXXXXXXXXXXXXX    ++++    OOOO",
"OOOO    ++++    XXXXXXXXXXXXXXXXXXXXXXXXXXXXXXXX    ++++    OOOO",
"OOOO    @@@@    ................................    @@@@    OOOO",
"OOOO    @@@@    ................................    @@@@    OOOO",
"OOOO    @@@@    ................................    @@@@    OOOO",
"OOOO    @@@@    ................................    @@@@    OOOO",
"OOOO    ++++    XXXXXXXXXXXXXXXXXXXXXXXXXXXXXXXX    ++++    OOOO",
"OOOO    ++++    XXXXXXXXXXXXXXXXXXXXXXXXXXXXXXXX    ++++    OOOO",
"OOOO    ++++    XXXXXXXXXXXXXXXXXXXXXXXXXXXXXXXX    ++++    OOOO",
"OOOO    ++++    XXXXXXXXXXXXXXXXXXXXXXXXXXXXXXXX    ++++    OOOO",
"OOOO    ++++    XXXXXXXX                XXXXXXXX    ++++    OOOO",
"OOOO    ++++    XXXXXXXX                XXXXXXXX    ++++    OOOO",
"OOOO    ++++    XXXXXXXX                XXXXXXXX    ++++    OOOO",
"OOOO    ++++    XXXXXXXX                XXXXXXXX    ++++    OOOO",
"OOOO    ++++            @@@@@@@@@@@@@@@@            ++++    OOOO",
"OOOO    ++++            @@@@@@@@@@@@@@@@            ++++    OOOO",
"OOOO    ++++            @@@@@@@@@@@@@@@@            ++++    OOOO",
"OOOO    ++++            @@@@@@@@@@@@@@@@            ++++    OOOO",
"OOOO    ++++++++++++oooo++++        ++++oooo++++++++++++    OOOO",
"OOOO    ++++++++++++oooo++++        ++++oooo++++++++++++    OOOO",
"OOOO    ++++++++++++oooo++++        ++++oooo++++++++++++    OOOO",
"OOOO    ++++++++++++oooo++++        ++++oooo++++++++++++    OOOO",
"OOOO                    ++++        ++++                    OOOO",
"OOOO                    ++++        ++++                    OOOO",
"OOOO                    ++++        ++++                    OOOO",
"OOOO                    ++++        ++++                    OOOO",
"OOOO    oooo    XXXXXXXX    ++++++++    XXXXXXXX    oooo    OOOO",
"OOOO    oooo    XXXXXXXX    ++++++++    XXXXXXXX    oooo    OOOO",
"OOOO    oooo    XXXXXXXX    ++++++++    XXXXXXXX    oooo    OOOO",
"OOOO    oooo    XXXXXXXX    ++++++++    XXXXXXXX    oooo    OOOO",
"OOOO    ++++                                        ++++    OOOO",
"OOOO    ++++                                        ++++    OOOO",
"OOOO    ++++                                        ++++    OOOO",
"OOOO    ++++                                        ++++    OOOO",
"OOOO    ++++++++++++++++++++++++++++++++++++++++++++++++    OOOO",
"OOOO    ++++++++++++++++++++++++++++++++++++++++++++++++    OOOO",
"OOOO    ++++++++++++++++++++++++++++++++++++++++++++++++    OOOO",
"OOOO    ++++++++++++++++++++++++++++++++++++++++++++++++    OOOO",
"OOOO    oooo                                        oooo    OOOO",
"OOOO    oooo                                        oooo    OOOO",
"OOOO    oooo                                        oooo    OOOO",
"OOOO    oooo                                        oooo    OOOO"
};
