/* XPM */
static char *dummy[]={
"16 16 7 1",
"# c #14182e",
"b c #ad2f45",
". c #c8d45d",
"d c #e64539",
"e c #f0b541",
"c c #f5ffe8",
"a c #ffee83",
"................",
"................",
"................",
"..##........##..",
".#a##########a#.",
".#a#bbbbbbbb#a#.",
".#c#dddddddd#c#.",
".#a#bbbbbbbb#a#.",
".#a#bb####bb#a#.",
".#a###cccc###a#.",
".#aaaea##aeaaa#.",
".#####a##a#####.",
".#e#bb#aa#bb#e#.",
".#a##########a#.",
".#aaaaaaaaaaaa#.",
".#e##########e#."};
