/* XPM */
static char *chest264[] = {
/* columns rows colors chars-per-pixel */
"64 64 6 1 ",
"  c #14182E",
". c #AD2F45",
"X c #F0B541",
"o c #C8D45D",
"O c #FFEE83",
"+ c #F5FFE8",
/* pixels */
"oooooooooooooooooooooooooooooooooooooooooooooooooooooooooooooooo",
"oooooooooooooooooooooooooooooooooooooooooooooooooooooooooooooooo",
"oooooooooooooooooooooooooooooooooooooooooooooooooooooooooooooooo",
"oooooooooooooooooooooooooooooooooooooooooooooooooooooooooooooooo",
"oooooooo        oooooooooooooooooooooooooooooooo        oooooooo",
"oooooooo        oooooooooooooooooooooooooooooooo        oooooooo",
"oooooooo        oooooooooooooooooooooooooooooooo        oooooooo",
"oooooooo        oooooooooooooooooooooooooooooooo        oooooooo",
"oooo    OOOO                                        OOOO    oooo",
"oooo    OOOO                                        OOOO    oooo",
"oooo    OOOO                                        OOOO    oooo",
"oooo    OOOO                                        OOOO    oooo",
"oooo    OOOO            ++++        ++++            OOOO    oooo",
"oooo    OOOO            ++++        ++++            OOOO    oooo",
"oooo    OOOO            ++++        ++++            OOOO    oooo",
"oooo    OOOO            ++++        ++++            OOOO    oooo",
"oooo    OOOOOOOOOOOOXXXXOOOO        OOOOXXXXOOOOOOOOOOOO    oooo",
"oooo    OOOOOOOOOOOOXXXXOOOO        OOOOXXXXOOOOOOOOOOOO    oooo",
"oooo    OOOOOOOOOOOOXXXXOOOO        OOOOXXXXOOOOOOOOOOOO    oooo",
"oooo    OOOOOOOOOOOOXXXXOOOO        OOOOXXXXOOOOOOOOOOOO    oooo",
"oooo                        OOOOOOOO                        oooo",
"oooo                        OOOOOOOO                        oooo",
"oooo                        OOOOOOOO                        oooo",
"oooo                        OOOOOOOO                        oooo",
"oooo                                                        oooo",
"oooo                                                        oooo",
"oooo                                                        oooo",
"oooo                                                        oooo",
"oooo    XXXX                                        XXXX    oooo",
"oooo    XXXX                                        XXXX    oooo",
"oooo    XXXX                                        XXXX    oooo",
"oooo    XXXX                                        XXXX    oooo",
"oooo    XXXX                                        XXXX    oooo",
"oooo    XXXX                                        XXXX    oooo",
"oooo    XXXX                                        XXXX    oooo",
"oooo    XXXX                                        XXXX    oooo",
"oooo    XXXX                                        XXXX    oooo",
"oooo    XXXX                                        XXXX    oooo",
"oooo    XXXX                                        XXXX    oooo",
"oooo    XXXX                                        XXXX    oooo",
"oooo    XXXX                                        XXXX    oooo",
"oooo    XXXX                                        XXXX    oooo",
"oooo    XXXX                                        XXXX    oooo",
"oooo    XXXX                                        XXXX    oooo",
"oooo    OOOO    ................................    OOOO    oooo",
"oooo    OOOO    ................................    OOOO    oooo",
"oooo    OOOO    ................................    OOOO    oooo",
"oooo    OOOO    ................................    OOOO    oooo",
"oooo    OOOO    ................................    OOOO    oooo",
"oooo    OOOO    ................................    OOOO    oooo",
"oooo    OOOO    ................................    OOOO    oooo",
"oooo    OOOO    ................................    OOOO    oooo",
"oooo    OOOO                                        OOOO    oooo",
"oooo    OOOO                                        OOOO    oooo",
"oooo    OOOO                                        OOOO    oooo",
"oooo    OOOO                                        OOOO    oooo",
"oooo    OOOOOOOOOOOOOOOOOOOOOOOOOOOOOOOOOOOOOOOOOOOOOOOO    oooo",
"oooo    OOOOOOOOOOOOOOOOOOOOOOOOOOOOOOOOOOOOOOOOOOOOOOOO    oooo",
"oooo    OOOOOOOOOOOOOOOOOOOOOOOOOOOOOOOOOOOOOOOOOOOOOOOO    oooo",
"oooo    OOOOOOOOOOOOOOOOOOOOOOOOOOOOOOOOOOOOOOOOOOOOOOOO    oooo",
"oooo    XXXX                                        XXXX    oooo",
"oooo    XXXX                                        XXXX    oooo",
"oooo    XXXX                                        XXXX    oooo",
"oooo    XXXX                                        XXXX    oooo"
};
