/* XPM */
static char *dummy[]={
"16 16 11 1",
"# c #14182e",
"c c #2b2b45",
"a c #3a3f5e",
"h c #4c6885",
"i c #4fa4b8",
"f c #52333f",
"g c #8f4d57",
"d c #bd6a62",
". c #c8d45d",
"e c #dfe0e8",
"b c #ffc2a1",
"................",
".....######.....",
"....#aaaaaa#....",
"...#aaaaaaaa#...",
"...#aaaaaaaa#...",
"...#abaaaaba#...",
"...#abbbbbba#...",
"..#baccbbccab#..",
"..#bab#bb#bab#..",
"...#db#dd#bd#...",
"...##dbbbbd##...",
"..#befgeegfeb#..",
".#bd#ggeegg#db#.",
".#bb##hiih##bb#.",
"..###dd##dd###..",
".....##..##....."};
