/* XPM */
static char *char364[] = {
/* columns rows colors chars-per-pixel */
"64 64 10 1 ",
"  c #14182E",
". c #52333F",
"X c #3A3F5E",
"o c #8F4D57",
"O c #BD6A62",
"+ c #C8D45D",
"@ c #4C6885",
"# c #4FA4B8",
"$ c #FFC2A1",
"% c #DFE0E8",
/* pixels */
"++++++++++++++++++++++++++++++++++++++++++++++++++++++++++++++++",
"++++++++++++++++++++++++++++++++++++++++++++++++++++++++++++++++",
"++++++++++++++++++++++++++++++++++++++++++++++++++++++++++++++++",
"++++++++++++++++++++++++++++++++++++++++++++++++++++++++++++++++",
"++++++++++++++++++++++++++++++++++++++++++++++++++++++++++++++++",
"++++++++++++++++++++++++++++++++++++++++++++++++++++++++++++++++",
"++++++++++++++++++++++++++++++++++++++++++++++++++++++++++++++++",
"++++++++++++++++++++++++++++++++++++++++++++++++++++++++++++++++",
"++++++++++++++++++++                        ++++++++++++++++++++",
"++++++++++++++++++++                        ++++++++++++++++++++",
"++++++++++++++++++++                        ++++++++++++++++++++",
"++++++++++++++++++++                        ++++++++++++++++++++",
"++++++++++++++++    XXXXXXXXXXXXXXXXXXXXXXXX    ++++++++++++++++",
"++++++++++++++++    XXXXXXXXXXXXXXXXXXXXXXXX    ++++++++++++++++",
"++++++++++++++++    XXXXXXXXXXXXXXXXXXXXXXXX    ++++++++++++++++",
"++++++++++++++++    XXXXXXXXXXXXXXXXXXXXXXXX    ++++++++++++++++",
"++++++++++++    XXXXXXXXXXXXXXXXXXXXXXXXXXXXXXXX    ++++++++++++",
"++++++++++++    XXXXXXXXXXXXXXXXXXXXXXXXXXXXXXXX    ++++++++++++",
"++++++++++++    XXXXXXXXXXXXXXXXXXXXXXXXXXXXXXXX    ++++++++++++",
"++++++++++++    XXXXXXXXXXXXXXXXXXXXXXXXXXXXXXXX    ++++++++++++",
"++++++++++++    XXXXXXXXXXXXXXXXXXXXXXXXXXXXXXXX    ++++++++++++",
"++++++++++++    XXXXXXXXXXXXXXXXXXXXXXXXXXXXXXXX    ++++++++++++",
"++++++++++++    XXXXXXXXXXXXXXXXXXXXXXXXXXXXXXXX    ++++++++++++",
"++++++++++++    XXXXXXXXXXXXXXXXXXXXXXXXXXXXXXXX    ++++++++++++",
"++++++++++++    XXXXXXXXXXXXXXXXXXXXXXXXXXXXXXXX    ++++++++++++",
"++++++++++++    XXXXXXXXXXXXXXXXXXXXXXXXXXXXXXXX    ++++++++++++",
"++++++++++++    XXXXXXXXXXXXXXXXXXXXXXXXXXXXXXXX    ++++++++++++",
"++++++++++++    XXXXXXXXXXXXXXXXXXXXXXXXXXXXXXXX    ++++++++++++",
"++++++++++++    XXXXXXXXXXXXXXXXXXXXXXXXXXXXXXXX    ++++++++++++",
"++++++++++++    XXXXXXXXXXXXXXXXXXXXXXXXXXXXXXXX    ++++++++++++",
"++++++++++++    XXXXXXXXXXXXXXXXXXXXXXXXXXXXXXXX    ++++++++++++",
"++++++++++++    XXXXXXXXXXXXXXXXXXXXXXXXXXXXXXXX    ++++++++++++",
"++++++++    $$$$XXXXXXXXXXXXXXXXXXXXXXXXXXXXXXXX$$$$    ++++++++",
"++++++++    $$$$XXXXXXXXXXXXXXXXXXXXXXXXXXXXXXXX$$$$    ++++++++",
"++++++++    $$$$XXXXXXXXXXXXXXXXXXXXXXXXXXXXXXXX$$$$    ++++++++",
"++++++++    $$$$XXXXXXXXXXXXXXXXXXXXXXXXXXXXXXXX$$$$    ++++++++",
"++++++++    $$$$XXXXXXXXXXXXXXXXXXXXXXXXXXXXXXXX$$$$    ++++++++",
"++++++++    $$$$XXXXXXXXXXXXXXXXXXXXXXXXXXXXXXXX$$$$    ++++++++",
"++++++++    $$$$XXXXXXXXXXXXXXXXXXXXXXXXXXXXXXXX$$$$    ++++++++",
"++++++++    $$$$XXXXXXXXXXXXXXXXXXXXXXXXXXXXXXXX$$$$    ++++++++",
"++++++++++++    OOOOXXXXXXXXXXXXXXXXXXXXXXXXOOOO    ++++++++++++",
"++++++++++++    OOOOXXXXXXXXXXXXXXXXXXXXXXXXOOOO    ++++++++++++",
"++++++++++++    OOOOXXXXXXXXXXXXXXXXXXXXXXXXOOOO    ++++++++++++",
"++++++++++++    OOOOXXXXXXXXXXXXXXXXXXXXXXXXOOOO    ++++++++++++",
"++++++++++++    %%%%....                ....%%%%    ++++++++++++",
"++++++++++++    %%%%....                ....%%%%    ++++++++++++",
"++++++++++++    %%%%....                ....%%%%    ++++++++++++",
"++++++++++++    %%%%....                ....%%%%    ++++++++++++",
"++++++++    $$$$    ....oooo........oooo....    $$$$    ++++++++",
"++++++++    $$$$    ....oooo........oooo....    $$$$    ++++++++",
"++++++++    $$$$    ....oooo........oooo....    $$$$    ++++++++",
"++++++++    $$$$    ....oooo........oooo....    $$$$    ++++++++",
"++++    $$$$OOOO    ........oooooooo........    OOOO$$$$    ++++",
"++++    $$$$OOOO    ........oooooooo........    OOOO$$$$    ++++",
"++++    $$$$OOOO    ........oooooooo........    OOOO$$$$    ++++",
"++++    $$$$OOOO    ........oooooooo........    OOOO$$$$    ++++",
"++++    $$$$$$$$        @@@@########@@@@        $$$$$$$$    ++++",
"++++    $$$$$$$$        @@@@########@@@@        $$$$$$$$    ++++",
"++++    $$$$$$$$        @@@@########@@@@        $$$$$$$$    ++++",
"++++    $$$$$$$$        @@@@########@@@@        $$$$$$$$    ++++",
"++++++++            OOOOOOOO        OOOOOOOO            ++++++++",
"++++++++            OOOOOOOO        OOOOOOOO            ++++++++",
"++++++++            OOOOOOOO        OOOOOOOO            ++++++++",
"++++++++            OOOOOOOO        OOOOOOOO            ++++++++"
};
