/* XPM */
static char *dummy[]={
"16 16 10 1",
"# c #14182e",
"a c #3a3f5e",
"g c #4c6885",
"h c #4fa4b8",
"e c #52333f",
"f c #8f4d57",
"c c #bd6a62",
". c #c8d45d",
"d c #dfe0e8",
"b c #ffc2a1",
"................",
"................",
".....######.....",
"....#aaaaaa#....",
"...#aaaaaaaa#...",
"...#aaaaaaaa#...",
"...#aaaaaaaa#...",
"...#aaaaaaaa#...",
"..#baaaaaaaab#..",
"..#baaaaaaaab#..",
"...#caaaaaac#...",
"...#de####ed#...",
"..#b#efeefe#b#..",
".#bc#eeffee#cb#.",
".#bb##ghhg##bb#.",
"..###cc##cc###.."};
