/* XPM */
static char *skel264[] = {
/* columns rows colors chars-per-pixel */
"64 64 5 1 ",
"  c #14182E",
". c #C8D45D",
"X c #686F99",
"o c #A3A7C2",
"O c #DFE0E8",
/* pixels */
"................................................................",
"................................................................",
"................................................................",
"................................................................",
"....................                        ....................",
"....................                        ....................",
"....................                        ....................",
"....................                        ....................",
"................    ooooOOOOOOOOOOOOOOOOoooo    ................",
"................    ooooOOOOOOOOOOOOOOOOoooo    ................",
"................    ooooOOOOOOOOOOOOOOOOoooo    ................",
"................    ooooOOOOOOOOOOOOOOOOoooo    ................",
"............    ooooOOOOOOOOOOOOOOOOOOOOOOOOoooo    ............",
"............    ooooOOOOOOOOOOOOOOOOOOOOOOOOoooo    ............",
"............    ooooOOOOOOOOOOOOOOOOOOOOOOOOoooo    ............",
"............    ooooOOOOOOOOOOOOOOOOOOOOOOOOoooo    ............",
"............    ooooOOOOOOOOOOOOOOOOOOOOOOOOoooo    ............",
"............    ooooOOOOOOOOOOOOOOOOOOOOOOOOoooo    ............",
"............    ooooOOOOOOOOOOOOOOOOOOOOOOOOoooo    ............",
"............    ooooOOOOOOOOOOOOOOOOOOOOOOOOoooo    ............",
"............    ooooXXXXOOOOOOOOOOOOOOOOXXXXoooo    ............",
"............    ooooXXXXOOOOOOOOOOOOOOOOXXXXoooo    ............",
"............    ooooXXXXOOOOOOOOOOOOOOOOXXXXoooo    ............",
"............    ooooXXXXOOOOOOOOOOOOOOOOXXXXoooo    ............",
"............    XXXXooooooooooooooooooooooooXXXX    ............",
"............    XXXXooooooooooooooooooooooooXXXX    ............",
"............    XXXXooooooooooooooooooooooooXXXX    ............",
"............    XXXXooooooooooooooooooooooooXXXX    ............",
"............    XXXXooooooooOOOOOOOOooooooooXXXX    ............",
"............    XXXXooooooooOOOOOOOOooooooooXXXX    ............",
"............    XXXXooooooooOOOOOOOOooooooooXXXX    ............",
"............    XXXXooooooooOOOOOOOOooooooooXXXX    ............",
"............    XXXXooooooooooooooooooooooooXXXX    ............",
"............    XXXXooooooooooooooooooooooooXXXX    ............",
"............    XXXXooooooooooooooooooooooooXXXX    ............",
"............    XXXXooooooooooooooooooooooooXXXX    ............",
"................    XXXXooooooooooooooooXXXX    ................",
"................    XXXXooooooooooooooooXXXX    ................",
"................    XXXXooooooooooooooooXXXX    ................",
"................    XXXXooooooooooooooooXXXX    ................",
"............                XXXXXXXX                ............",
"............                XXXXXXXX                ............",
"............                XXXXXXXX                ............",
"............                XXXXXXXX                ............",
"........    OOOOOOOOooooooooOOOOOOOOooooooooOOOOOOOO    ........",
"........    OOOOOOOOooooooooOOOOOOOOooooooooOOOOOOOO    ........",
"........    OOOOOOOOooooooooOOOOOOOOooooooooOOOOOOOO    ........",
"........    OOOOOOOOooooooooOOOOOOOOooooooooOOOOOOOO    ........",
"....    OOOOoooo    XXXXXXXXOOOOOOOOXXXXXXXX    ooooOOOO    ....",
"....    OOOOoooo    XXXXXXXXOOOOOOOOXXXXXXXX    ooooOOOO    ....",
"....    OOOOoooo    XXXXXXXXOOOOOOOOXXXXXXXX    ooooOOOO    ....",
"....    OOOOoooo    XXXXXXXXOOOOOOOOXXXXXXXX    ooooOOOO    ....",
"....    OOOOOOOO        oooooooooooooooo        OOOOOOOO    ....",
"....    OOOOOOOO        oooooooooooooooo        OOOOOOOO    ....",
"....    OOOOOOOO        oooooooooooooooo        OOOOOOOO    ....",
"....    OOOOOOOO        oooooooooooooooo        OOOOOOOO    ....",
"........            XXXXXXXX        XXXXXXXX            ........",
"........            XXXXXXXX        XXXXXXXX            ........",
"........            XXXXXXXX        XXXXXXXX            ........",
"........            XXXXXXXX        XXXXXXXX            ........",
"....................        ........        ....................",
"....................        ........        ....................",
"....................        ........        ....................",
"....................        ........        ...................."
};
