/* XPM */
static char *dummy[]={
"16 16 5 1",
"# c #181425",
"a c #2f5753",
"b c #3b7d4f",
"c c #63ab3f",
". c #c8d45d",
"................",
"................",
"................",
".....#####......",
"...#abcccba#....",
"..#abcccccba#...",
".#abbbcccbbba#..",
".abbbbbbbbabba..",
"#abbbabbbbabba#.",
"#aabbabbbbbaaa#.",
"#abaabbbbbbbba#.",
"#abbbbbabbabba#.",
".abbbbbabbabba..",
".#abbbbbaabba#..",
"..#abbbbbbba#...",
"....##aaa##....."};
