/* XPM */
static char *dummy[]={
"16 16 184 2",
".3 c #000b42",
".P c #001768",
"ao c #0084d5",
"#V c #0089d6",
"#K c #00aee4",
"#8 c #00b4e7",
"#m c #00beeb",
"aB c #00bfeb",
"#y c #00c9f0",
"#X c #00dcf6",
"#U c #00ddf9",
"a. c #00dffa",
"#9 c #00e1fb",
"#S c #00e1fc",
"#l c #00e6fd",
".0 c #00e9ff",
".I c #0140c9",
"#x c #0144c1",
"#L c #014fbc",
"#W c #015ac9",
"#e c #0162c7",
"am c #016bd1",
"#k c #0181d7",
"aM c #0182c9",
".w c #0187d8",
"#h c #0188d8",
"aN c #018cda",
".B c #01a4e2",
".A c #01a5e3",
"#N c #01a7d5",
"#n c #01ade6",
".O c #01b2e7",
"#d c #01b5ea",
"aR c #01b6eb",
"#7 c #01bced",
".1 c #01c1ee",
"#C c #01c3ee",
"#c c #01cbf4",
".8 c #01ccf6",
"#6 c #01cff7",
"#p c #01d0f7",
"ap c #01d1f7",
"#A c #01d2f7",
"#I c #01d4f8",
"aE c #01d6f9",
".U c #01d7f8",
"#0 c #01d7f9",
"ag c #01d8f7",
".X c #01d9fa",
"aD c #01dbfb",
"aJ c #01dcfb",
"aa c #01ddfb",
"ak c #01defb",
"aV c #025bd3",
"a# c #025fd2",
".6 c #025fd5",
"## c #0273d8",
"aL c #027dd7",
"#Q c #027ed3",
"#. c #0285dd",
".T c #0287dd",
"#O c #0290de",
"aT c #0291df",
".x c #0293e0",
".y c #0293e1",
".z c #0295e3",
"aS c #0297e3",
"#t c #029be2",
"#Y c #02a1e4",
"#w c #02a2cb",
"#G c #02aae9",
"aQ c #02afeb",
"#B c #02b3ed",
"as c #02b6ef",
".L c #02b9f0",
"#b c #02bbf0",
"aq c #02bbf1",
"ae c #02bdef",
".9 c #02beef",
".Z c #02c1f2",
"aH c #02c2f2",
"#P c #02c2f3",
"ab c #02c3f3",
"ax c #02c3f4",
"#5 c #02c4f3",
"al c #02c5f2",
".Y c #02c5f4",
"aC c #02c6f3",
"aK c #02cbf6",
"aG c #02cef7",
"aU c #0364d7",
"aO c #0365d7",
"#M c #0376be",
".N c #037bdc",
"aW c #0383db",
"#j c #0394e5",
"aP c #0398e5",
"#i c #039be7",
"#Z c #039fea",
"at c #03a2ea",
"ar c #03a8ed",
".K c #03abee",
"ay c #03b3ef",
"#4 c #03b5ef",
"#q c #03b7ef",
".W c #03b8f1",
"aI c #03baf2",
"aF c #03bef3",
"#v c #046fdd",
"au c #0472dd",
"#o c #047bdc",
"av c #048ae4",
"#T c #0495e6",
"aw c #0498e7",
"af c #049feb",
"#u c #04a9ed",
".M c #04b1f0",
"#H c #04b4f0",
"#a c #0583e2",
".V c #0589e5",
".J c #05a1eb",
"#R c #05a2ed",
"#z c #05d0f5",
"#J c #0678e2",
".7 c #067fe6",
"ah c #0bc8ef",
"aj c #0c6cdb",
".2 c #10d5f4",
".4 c #15191b",
".m c #1686d4",
".n c #1a3cc3",
"ad c #1aa6d4",
"ac c #1dc5ed",
"a1 c #202628",
"#r c #2169cc",
"ai c #276bc9",
"#1 c #288ad8",
"#3 c #2aafe4",
".l c #2d8bd2",
".c c #31383c",
"aX c #3262c7",
"aZ c #343b3c",
".5 c #344cbe",
"#2 c #363e42",
".C c #3c50bc",
".o c #4154b3",
".H c #424b4f",
".Q c #464f53",
"#g c #465055",
".v c #4a5cb6",
".j c #505a5f",
"#D c #535e64",
".k c #5e6eb6",
"#F c #637077",
".d c #647177",
"an c #6f7d84",
"a0 c #6f7e84",
".b c #7c8b93",
"aA c #86979f",
".e c #90a2ab",
".R c #99acb2",
"#f c #99acb4",
".u c #99acb5",
".p c #9aabad",
".G c #9aacb0",
"aY c #9aacb4",
".a c #9aadb3",
".S c #9badb2",
".f c #9baeb2",
".D c #9cada5",
"#E c #9caeb1",
"az c #9cafb1",
".E c #9daeb0",
"#s c #9eb0af",
".i c #9fb1ad",
".q c #a0b2ac",
".g c #a1b2ab",
".h c #a1b3ab",
".t c #a2b3a9",
".# c #a5b6a4",
".F c #a5b6a6",
".s c #bfcd76",
".r c #c4d06a",
"Qt c #c8d45d",
"QtQtQt.#.a.b.c.d.c.d.e.f.gQtQtQt",
"QtQt.h.i.j.k.k.l.m.n.o.j.p.q.rQt",
".s.t.u.c.v.w.x.y.z.A.B.C.c.D.EQt",
".F.G.H.k.I.z.J.K.L.M.N.O.P.Q.RQt",
".S.c.k.T.U.V.W.X.Y.Z.0.1.2.3.4.u",
".u.c.5.6.7.8.9#.###a#b#c#d#e.H.u",
"#f#g#h#i#b#j#k#l#m#n#o#p#q#r#g#s",
".a.j#t#u#p#v.0#w#x#y#z#A#B#C#D#E",
".a#F#G#H#I#J#K#L#M#N#O#P.0#Q.c.u",
".u.c.y#R#S#T#U#V#W#X#Y#Z#0#1.j.u",
".u#2#3#4#5#6#7#8#9a.a#aaabac.j.u",
".u.Hadaeaf#0.0agahaiajakalam#D#f",
".uanaoapaqarasatauavawaxay.A#D.u",
"azaAaBaCaDaEaFaGaHaIaJ#PaKaL#g.u",
".u.jaMaNaOaPaQaRaSaTaUaVaWaX#g.u",
"aY.daZ.d.c.d.c.d.ca0a1.H.c.d.j.u"};
