/* XPM */
static char *dummy[]={
"16 16 6 1",
"# c #14182e",
"c c #686f99",
"a c #a3a7c2",
"d c #ad2f45",
". c #c8d45d",
"b c #dfe0e8",
"................",
".....######.....",
"....#abbbba#....",
"...#abbbbbba#...",
"...#abbbbbba#...",
"...#cabbbbac#...",
"...#a#abba#a#...",
"...#a##aa##a#...",
"...#a#dbbd#a#...",
"....#abccba#....",
"...##b#bb#b##...",
"..#bb######bb#..",
".#ba#abccba#ab#.",
".#bb##caac##bb#.",
"..###aa##aa###..",
".....##..##....."};
