/* XPM */
static char *bush64[] = {
/* columns rows colors chars-per-pixel */
"64 64 5 1 ",
"  c #181425",
". c #2F5753",
"X c #3B7D4F",
"o c #63AB3F",
"O c #C8D45D",
/* pixels */
"OOOOOOOOOOOOOOOOOOOOOOOOOOOOOOOOOOOOOOOOOOOOOOOOOOOOOOOOOOOOOOOO",
"OOOOOOOOOOOOOOOOOOOOOOOOOOOOOOOOOOOOOOOOOOOOOOOOOOOOOOOOOOOOOOOO",
"OOOOOOOOOOOOOOOOOOOOOOOOOOOOOOOOOOOOOOOOOOOOOOOOOOOOOOOOOOOOOOOO",
"OOOOOOOOOOOOOOOOOOOOOOOOOOOOOOOOOOOOOOOOOOOOOOOOOOOOOOOOOOOOOOOO",
"OOOOOOOOOOOOOOOOOOOOOOOOOOOOOOOOOOOOOOOOOOOOOOOOOOOOOOOOOOOOOOOO",
"OOOOOOOOOOOOOOOOOOOOOOOOOOOOOOOOOOOOOOOOOOOOOOOOOOOOOOOOOOOOOOOO",
"OOOOOOOOOOOOOOOOOOOOOOOOOOOOOOOOOOOOOOOOOOOOOOOOOOOOOOOOOOOOOOOO",
"OOOOOOOOOOOOOOOOOOOOOOOOOOOOOOOOOOOOOOOOOOOOOOOOOOOOOOOOOOOOOOOO",
"OOOOOOOOOOOOOOOOOOOOOOOOOOOOOOOOOOOOOOOOOOOOOOOOOOOOOOOOOOOOOOOO",
"OOOOOOOOOOOOOOOOOOOOOOOOOOOOOOOOOOOOOOOOOOOOOOOOOOOOOOOOOOOOOOOO",
"OOOOOOOOOOOOOOOOOOOOOOOOOOOOOOOOOOOOOOOOOOOOOOOOOOOOOOOOOOOOOOOO",
"OOOOOOOOOOOOOOOOOOOOOOOOOOOOOOOOOOOOOOOOOOOOOOOOOOOOOOOOOOOOOOOO",
"OOOOOOOOOOOOOOOOOOOO                    OOOOOOOOOOOOOOOOOOOOOOOO",
"OOOOOOOOOOOOOOOOOOOO                    OOOOOOOOOOOOOOOOOOOOOOOO",
"OOOOOOOOOOOOOOOOOOOO                    OOOOOOOOOOOOOOOOOOOOOOOO",
"OOOOOOOOOOOOOOOOOOOO                    OOOOOOOOOOOOOOOOOOOOOOOO",
"OOOOOOOOOOOO    ....XXXXooooooooooooXXXX....    OOOOOOOOOOOOOOOO",
"OOOOOOOOOOOO    ....XXXXooooooooooooXXXX....    OOOOOOOOOOOOOOOO",
"OOOOOOOOOOOO    ....XXXXooooooooooooXXXX....    OOOOOOOOOOOOOOOO",
"OOOOOOOOOOOO    ....XXXXooooooooooooXXXX....    OOOOOOOOOOOOOOOO",
"OOOOOOOO    ....XXXXooooooooooooooooooooXXXX....    OOOOOOOOOOOO",
"OOOOOOOO    ....XXXXooooooooooooooooooooXXXX....    OOOOOOOOOOOO",
"OOOOOOOO    ....XXXXooooooooooooooooooooXXXX....    OOOOOOOOOOOO",
"OOOOOOOO    ....XXXXooooooooooooooooooooXXXX....    OOOOOOOOOOOO",
"OOOO    ....XXXXXXXXXXXXooooooooooooXXXXXXXXXXXX....    OOOOOOOO",
"OOOO    ....XXXXXXXXXXXXooooooooooooXXXXXXXXXXXX....    OOOOOOOO",
"OOOO    ....XXXXXXXXXXXXooooooooooooXXXXXXXXXXXX....    OOOOOOOO",
"OOOO    ....XXXXXXXXXXXXooooooooooooXXXXXXXXXXXX....    OOOOOOOO",
"OOOO....XXXXXXXXXXXXXXXXXXXXXXXXXXXXXXXX....XXXXXXXX....OOOOOOOO",
"OOOO....XXXXXXXXXXXXXXXXXXXXXXXXXXXXXXXX....XXXXXXXX....OOOOOOOO",
"OOOO....XXXXXXXXXXXXXXXXXXXXXXXXXXXXXXXX....XXXXXXXX....OOOOOOOO",
"OOOO....XXXXXXXXXXXXXXXXXXXXXXXXXXXXXXXX....XXXXXXXX....OOOOOOOO",
"    ....XXXXXXXXXXXX....XXXXXXXXXXXXXXXX....XXXXXXXX....    OOOO",
"    ....XXXXXXXXXXXX....XXXXXXXXXXXXXXXX....XXXXXXXX....    OOOO",
"    ....XXXXXXXXXXXX....XXXXXXXXXXXXXXXX....XXXXXXXX....    OOOO",
"    ....XXXXXXXXXXXX....XXXXXXXXXXXXXXXX....XXXXXXXX....    OOOO",
"    ........XXXXXXXX....XXXXXXXXXXXXXXXXXXXX............    OOOO",
"    ........XXXXXXXX....XXXXXXXXXXXXXXXXXXXX............    OOOO",
"    ........XXXXXXXX....XXXXXXXXXXXXXXXXXXXX............    OOOO",
"    ........XXXXXXXX....XXXXXXXXXXXXXXXXXXXX............    OOOO",
"    ....XXXX........XXXXXXXXXXXXXXXXXXXXXXXXXXXXXXXX....    OOOO",
"    ....XXXX........XXXXXXXXXXXXXXXXXXXXXXXXXXXXXXXX....    OOOO",
"    ....XXXX........XXXXXXXXXXXXXXXXXXXXXXXXXXXXXXXX....    OOOO",
"    ....XXXX........XXXXXXXXXXXXXXXXXXXXXXXXXXXXXXXX....    OOOO",
"    ....XXXXXXXXXXXXXXXXXXXX....XXXXXXXX....XXXXXXXX....    OOOO",
"    ....XXXXXXXXXXXXXXXXXXXX....XXXXXXXX....XXXXXXXX....    OOOO",
"    ....XXXXXXXXXXXXXXXXXXXX....XXXXXXXX....XXXXXXXX....    OOOO",
"    ....XXXXXXXXXXXXXXXXXXXX....XXXXXXXX....XXXXXXXX....    OOOO",
"OOOO....XXXXXXXXXXXXXXXXXXXX....XXXXXXXX....XXXXXXXX....OOOOOOOO",
"OOOO....XXXXXXXXXXXXXXXXXXXX....XXXXXXXX....XXXXXXXX....OOOOOOOO",
"OOOO....XXXXXXXXXXXXXXXXXXXX....XXXXXXXX....XXXXXXXX....OOOOOOOO",
"OOOO....XXXXXXXXXXXXXXXXXXXX....XXXXXXXX....XXXXXXXX....OOOOOOOO",
"OOOO    ....XXXXXXXXXXXXXXXXXXXX........XXXXXXXX....    OOOOOOOO",
"OOOO    ....XXXXXXXXXXXXXXXXXXXX........XXXXXXXX....    OOOOOOOO",
"OOOO    ....XXXXXXXXXXXXXXXXXXXX........XXXXXXXX....    OOOOOOOO",
"OOOO    ....XXXXXXXXXXXXXXXXXXXX........XXXXXXXX....    OOOOOOOO",
"OOOOOOOO    ....XXXXXXXXXXXXXXXXXXXXXXXXXXXX....    OOOOOOOOOOOO",
"OOOOOOOO    ....XXXXXXXXXXXXXXXXXXXXXXXXXXXX....    OOOOOOOOOOOO",
"OOOOOOOO    ....XXXXXXXXXXXXXXXXXXXXXXXXXXXX....    OOOOOOOOOOOO",
"OOOOOOOO    ....XXXXXXXXXXXXXXXXXXXXXXXXXXXX....    OOOOOOOOOOOO",
"OOOOOOOOOOOOOOOO        ............        OOOOOOOOOOOOOOOOOOOO",
"OOOOOOOOOOOOOOOO        ............        OOOOOOOOOOOOOOOOOOOO",
"OOOOOOOOOOOOOOOO        ............        OOOOOOOOOOOOOOOOOOOO",
"OOOOOOOOOOOOOOOO        ............        OOOOOOOOOOOOOOOOOOOO"
};
