/* XPM */
static char *portal64[] = {
/* columns rows colors chars-per-pixel */
"64 64 184 2 ",
"   c #15191B",
".  c #202628",
"X  c #31383C",
"o  c #343B3C",
"O  c #000B42",
"+  c #363E42",
"@  c #001768",
"#  c #424B4F",
"$  c #464F53",
"%  c #465055",
"&  c #505A5F",
"*  c #535E64",
"=  c #637077",
"-  c #647177",
";  c #BFCD76",
":  c #C8D45D",
">  c #C4D06A",
",  c #014FBC",
"<  c #344CBE",
"1  c #3C50BC",
"2  c #0376BE",
"3  c #6F7D84",
"4  c #6F7E84",
"5  c #4154B3",
"6  c #4A5CB6",
"7  c #5E6EB6",
"8  c #1A3CC3",
"9  c #0144C1",
"0  c #0140C9",
"q  c #015AC9",
"w  c #025BD3",
"e  c #025FD2",
"r  c #025FD5",
"t  c #0162C7",
"y  c #0364D7",
"u  c #0365D7",
"i  c #016BD1",
"p  c #046FDD",
"a  c #0C6CDB",
"s  c #027ED3",
"d  c #027DD7",
"f  c #0273D8",
"g  c #0472DD",
"h  c #037BDC",
"j  c #047BDC",
"k  c #276BC9",
"l  c #2169CC",
"z  c #3262C7",
"x  c #0678E2",
"c  c #067FE6",
"v  c #7C8B93",
"b  c #0182C9",
"n  c #0181D7",
"m  c #0084D5",
"M  c #0089D6",
"N  c #0383DB",
"B  c #0187D8",
"V  c #0285DD",
"C  c #0287DD",
"Z  c #0188D8",
"A  c #018CDA",
"S  c #1686D4",
"D  c #0290DE",
"F  c #0291DF",
"G  c #2D8BD2",
"H  c #288AD8",
"J  c #02A2CB",
"K  c #01A7D5",
"L  c #1AA6D4",
"P  c #0583E2",
"I  c #0589E5",
"U  c #048AE4",
"Y  c #0293E0",
"T  c #0293E1",
"R  c #0295E3",
"E  c #0297E3",
"W  c #0394E5",
"Q  c #0495E6",
"!  c #029BE2",
"~  c #0398E5",
"^  c #039BE7",
"/  c #0498E7",
"(  c #039FEA",
")  c #049FEB",
"_  c #01A4E2",
"`  c #01A5E3",
"'  c #02A1E4",
"]  c #00AEE4",
"[  c #01ADE6",
"{  c #03A2EA",
"}  c #05A1EB",
"|  c #05A2ED",
" . c #02AAE9",
".. c #02AFEB",
"X. c #03A8ED",
"o. c #03ABEE",
"O. c #04A9ED",
"+. c #01B2E7",
"@. c #00B4E7",
"#. c #01B5EA",
"$. c #01B6EB",
"%. c #02B3ED",
"&. c #03B3EF",
"*. c #03B5EF",
"=. c #02B6EF",
"-. c #03B7EF",
";. c #00BEEB",
":. c #00BFEB",
">. c #01BCED",
",. c #02BDEF",
"<. c #02BEEF",
"1. c #04B1F0",
"2. c #04B4F0",
"3. c #02B9F0",
"4. c #03B8F1",
"5. c #02BBF0",
"6. c #02BBF1",
"7. c #03BAF2",
"8. c #03BEF3",
"9. c #2AAFE4",
"0. c #01C1EE",
"q. c #01C3EE",
"w. c #0BC8EF",
"e. c #1DC5ED",
"r. c #02C1F2",
"t. c #02C2F2",
"y. c #02C2F3",
"u. c #02C3F3",
"i. c #02C5F2",
"p. c #02C4F3",
"a. c #02C6F3",
"s. c #02C3F4",
"d. c #02C5F4",
"f. c #00C9F0",
"g. c #01CBF4",
"h. c #02CBF6",
"j. c #01CCF6",
"k. c #01CFF7",
"l. c #02CEF7",
"z. c #01D0F7",
"x. c #01D1F7",
"c. c #01D2F7",
"v. c #05D0F5",
"b. c #01D8F7",
"n. c #00DCF6",
"m. c #01D4F8",
"M. c #01D7F8",
"N. c #01D6F9",
"B. c #01D7F9",
"V. c #01D9FA",
"C. c #01DBFB",
"Z. c #00DDF9",
"A. c #01DCFB",
"S. c #01DDFB",
"D. c #00DFFA",
"F. c #01DEFB",
"G. c #10D5F4",
"H. c #00E1FB",
"J. c #00E1FC",
"K. c #00E6FD",
"L. c #00E9FF",
"P. c #86979F",
"I. c #9CADA5",
"U. c #90A2AB",
"Y. c #9AABAD",
"T. c #9FB1AD",
"R. c #9EB0AF",
"E. c #9AACB0",
"W. c #99ACB2",
"Q. c #9BADB2",
"!. c #9AADB3",
"~. c #9BAEB2",
"^. c #9DAEB0",
"/. c #9CAEB1",
"(. c #9CAFB1",
"). c #99ACB4",
"_. c #99ACB5",
"`. c #9AACB4",
"'. c #A5B6A4",
"]. c #A5B6A6",
"[. c #A2B3A9",
"{. c #A1B2AB",
"}. c #A1B3AB",
"|. c #A0B2AC",
/* pixels */
": : : : : : : : : : : : ].].].].E.E.E.E.v v v v X X X X - - - - X X X X - - - - U.U.U.U.E.E.E.E.[.[.[.[.: : : : : : : : : : : : ",
": : : : : : : : : : : : ].].].].E.E.E.E.v v v v X X X X - - - - X X X X - - - - U.U.U.U.E.E.E.E.[.[.[.[.: : : : : : : : : : : : ",
": : : : : : : : : : : : ].].].].E.E.E.E.v v v v X X X X - - - - X X X X - - - - U.U.U.U.E.E.E.E.[.[.[.[.: : : : : : : : : : : : ",
": : : : : : : : : : : : ].].].].E.E.E.E.v v v v X X X X - - - - X X X X - - - - U.U.U.U.E.E.E.E.[.[.[.[.: : : : : : : : : : : : ",
": : : : : : : : [.[.[.[.T.T.T.T.* * & & 7 7 7 7 7 7 7 7 G G G G S S S S 8 8 8 8 5 5 5 5 & & & & Y.Y.Y.Y.[.[.[.[.> > > > : : : : ",
": : : : : : : : [.[.[.[.T.T.T.T.* * & & 7 7 7 7 7 7 7 7 G G G G S S S S 8 8 8 8 5 5 5 5 & & & & Y.Y.Y.Y.[.[.[.[.> > > > : : : : ",
": : : : : : : : [.[.[.[.T.T.T.T.* * * & 7 7 7 7 7 7 7 7 G G G G S S S S 8 8 8 8 5 5 5 5 & & & & Y.Y.Y.Y.T.[.[.[.> > > > : : : : ",
": : : : : : : : [.[.[.[.T.T.T.T.* * & & 7 7 7 7 7 7 7 7 G G G G S S S S 8 8 8 8 5 5 5 5 & & & & Y.Y.Y.Y.T.[.[.[.> > > > : : : : ",
"; ; ; ; [.[.[.[.E.E.E.E.X X X X 6 6 6 6 Z Z Z Z Y Y Y Y Y Y Y Y Y Y Y Y ' ' ' ' ' ' ' ' 1 1 1 1 X X X X I.I.I.I.E.E.E.E.: : : : ",
"; ; ; ; [.[.[.[.E.E.E.E.X X X X 6 6 6 6 B Z Z Z Y Y Y Y Y Y Y Y Y Y Y Y ' ' ' ' ' ' ' ' 1 1 1 1 X X X X I.I.I.I.E.E.E.E.: : : : ",
"; ; ; ; [.[.[.[.E.E.E.E.X X X X 6 6 6 6 B B Z Z Y Y Y Y Y Y Y Y Y Y Y Y ' ' ' ' ' ' ' ' 1 1 1 1 X X X X I.I.I.I.E.E.E.E.: : : : ",
"; ; ; ; [.[.[.[.E.E.E.E.X X X X 6 6 6 6 B B Z Z Y Y Y Y Y Y Y Y Y Y Y Y ' ' ' ' ' ' ' ' 1 1 1 1 X X X X I.I.I.I.E.E.E.E.: : : : ",
"].].].].E.E.E.E.$ $ # # 7 7 7 7 0 0 0 0 Y Y Y Y } } } } o.o.o.o.4.4.4.4.1.1.1.1.j j j j @.@.@.@.@ @ @ @ $ $ $ $ E.E.E.E.: : : : ",
"].].].].E.E.E.E.$ $ $ $ 7 7 7 7 0 0 0 0 Y Y Y Y } } } } o.o.o.o.4.4.4.4.1.1.1.1.j j j j @.@.@.@.@ @ @ @ $ $ $ $ E.E.E.E.: : : : ",
"].].].].E.E.E.E.$ $ $ $ 7 7 7 7 0 0 0 0 Y Y Y Y } } } } o.o.o.o.4.4.4.4.1.1.1.1.j j j j @.@.@.@.@ @ @ @ $ $ $ $ E.E.E.E.: : : : ",
"].].].].E.E.E.E.$ $ $ $ 7 7 7 7 0 0 0 0 Y Y Y Y } } } } o.o.o.o.4.4.4.4.1.1.1.1.j j j j @.@.@.@.@ @ @ @ $ $ $ $ E.E.E.E.: : : : ",
"E.E.E.E.X X X X 7 7 7 7 B B B B M.M.M.M.I I I I 4.4.4.4.V.V.V.V.a.a.a.a.a.a.a.4.K.K.K.K.q.q.q.q.G.G.G.G.O O O O         E.E.E.E.",
"E.E.E.E.X X X X 7 7 7 7 B B B B M.M.M.M.I I I I 4.4.4.4.V.V.V.V.a.a.a.a.a.a.a.a.K.K.L.K.q.q.q.q.G.G.G.G.O O O O         E.E.E.E.",
"E.E.E.E.X X X X 7 7 7 7 B B B B M.M.M.M.I I I I 4.4.4.4.V.V.V.V.a.a.a.a.a.a.a.a.L.L.L.L.q.q.q.q.G.G.G.G.O O O O         E.E.E.E.",
"E.E.E.E.X X X X 7 7 7 7 B B B B M.M.M.M.I I I I 4.4.4.4.V.V.V.V.a.a.a.a.a.a.a.a.L.L.L.L.q.q.q.q.G.G.G.G.O O O O         E.E.E.E.",
"E.E.E.E.X X X X < < < < r r r r c c c c j.j.j.j.4.4.4.4.B B B B g f f f P P P P 4.4.4.4.j.j.j.j.&.&.&.&.t t t t $ $ $ $ E.E.E.E.",
"E.E.E.E.X X X X < < < < r r r r c c c c j.j.j.j.4.4.4.4.B B B B g g f f P P P P 4.4.4.4.j.j.j.j.&.&.&.&.t t t t $ $ # $ E.E.E.E.",
"E.E.E.E.X X X X < < < < r r r r c c c c j.j.j.j.4.4.4.4.B B B B g g g g P P P P 4.4.4.4.j.j.j.j.&.&.&.&.t t t t # # # # E.E.E.E.",
"E.E.E.E.X X X X < < < < r r r r c c c c j.j.j.j.<.4.4.4.B B B B g g g g P P P P 4.4.4.4.j.j.j.j.&.&.&.&.t t t t # # # # E.E.E.E.",
"E.E.E.E.% % % % Z Z Z Z ! ! ^ ^ 4.4.4.4.Y Y Y Y n n n n K.K.K.K.<.<.<.<.] ] ] ] j j j j x.x.x.x.<.<.&.&.k k k k % % % % T.T.(.(.",
"E.E.E.E.% % % % Z Z Z Z ! ! ^ ^ 4.4.4.4.Y Y Y Y n n n n K.K.K.K.<.<.<.<.] ] ] ] j j j j x.x.x.x.<.<.&.&.k k k k % % % % T.T.T.T.",
"E.E.E.E.% % % % Z Z Z Z ! ! ! ^ 4.4.4.4.Y Y Y Y n n n n K.K.K.K.<.<.<.<.] ] ] ] j j j j x.x.x.x.<.&.&.&.l k k k % % % % T.T.T.T.",
"E.E.E.E.% % % % Z Z Z Z ! ! ! ^ 4.4.4.4.Y Y Y Y n n n n K.K.K.K.<.<.<.<.] ] ] ] j j j j x.x.x.x.<.&.&.&.l k k k % % % % T.T.T.T.",
"E.E.E.E.* * * & ! ! ! ! o.o.o.o.x.x.x.x.p p p p L.L.L.L.J J J J 9 9 9 9 f.f.f.f.x.x.x.x.x.x.x.x.&.&.&.&.q.q.q.q.* * * * E.E.E.E.",
"E.E.E.E.* * & & ! ! ! ! o.o.o.o.x.x.x.x.p p p p L.L.L.L.J J J J 9 9 9 9 f.f.f.f.x.x.x.x.x.x.x.x.&.&.&.&.q.q.q.q.* * * * E.E.E.E.",
"E.E.E.E.& & & & ! ! ! ! o.o.o.o.x.x.x.x.p p p p L.L.L.L.J J J J 9 9 9 9 f.f.f.f.x.x.x.x.x.x.x.x.&.&.&.&.q.q.q.q.* * * * E.E.E.E.",
"E.E.E.E.& & & & ! ! ! ! o.o.o.o.x.x.x.x.p p p p L.L.L.L.J J J J 9 9 9 9 j.j.f.f.x.x.x.x.x.x.x.x.&.&.&.&.q.q.q.q.* * * * E.E.E.E.",
"E.E.E.E.- - - - o.o.o.o.&.&.&.&.M.M.M.M.x x x x ] ] ] ] , , , , 2 2 2 2 K K K K D D D D a.a.a.a.L.L.L.L.d d d d X X X X E.E.E.E.",
"E.E.E.E.= = - - o.o.o.o.&.&.&.&.M.M.M.M.x x x x ] ] ] ] , , , , 2 2 2 2 K K K K D D D D a.a.a.a.L.L.L.L.d d d d X X X X E.E.E.E.",
"E.E.E.E.= = = = o.o.o.o.&.&.&.&.M.M.M.M.x x x x ] ] ] ] , , , , 2 2 2 2 K K K K D D D D a.a.a.a.L.L.L.L.d d d d X X X X E.E.E.E.",
"E.E.E.E.= = = = o.o.o.o.&.&.&.&.M.M.M.M.x x x x ] ] ] ] , , , , 2 2 2 2 K K K K D D D D a.a.a.a.L.L.L.L.d d d d X X X X E.E.E.E.",
"E.E.E.E.X X X X Y Y Y Y } } } } K.K.K.K.Y Y Y Y V.V.V.V.M M M M q q q q b.b.b.b.' ' ' ' ^ ^ ^ ^ M.M.M.M.H H H H & & & & E.E.E.E.",
"E.E.E.E.X X X X Y Y Y Y } } } } K.K.K.K.Y Y Y Y V.V.V.V.M M M M q q q q b.b.b.b.' ' ' ' ^ ^ ^ ^ M.M.M.M.H H H H & & & & E.E.E.E.",
"E.E.E.E.X X X X Y Y Y Y } } } } K.K.K.K.Y Y Y Y V.V.V.V.M M M M q q q q b.b.b.b.' ' ' ' ^ ^ ^ ^ M.M.M.M.H H H H & & & & E.E.E.E.",
"E.E.E.E.X X X X Y Y Y Y } } } } K.K.K.K.Q Q Y Y V.V.V.V.M M M M q q q q b.b.b.b.' ' ' ' ^ ^ ^ ^ M.M.M.M.H H H H & & & & E.E.E.E.",
"E.E.E.E.+ + + + 9.9.9.9.&.&.&.&.a.a.a.a.j.j.j.x.<.<.<.<.@.@.@.@.V.V.K.K.K.K.V.V.r r r r V.V.V.V.a.a.a.a.e.e.e.e.* * * & E.E.E.E.",
"E.E.E.E.+ + + + 9.9.9.9.&.&.&.&.a.a.a.a.j.j.j.j.<.<.<.<.@.@.@.@.V.V.K.K.K.K.V.V.r r r r V.V.V.V.a.a.a.a.e.e.e.e.* * * & E.E.E.E.",
"E.E.E.E.+ + + + 9.9.9.9.&.&.&.&.a.a.a.a.j.j.j.j.<.<.<.<.@.@.@.@.V.K.K.K.K.K.V.V.r r r r V.V.V.V.a.a.a.a.e.e.e.e.* * & & E.E.E.E.",
"E.E.E.E.+ + + + 9.9.9.9.&.&.&.&.a.a.a.a.j.j.j.j.<.<.<.<.@.@.@.@.K.K.K.K.K.K.V.V.r r r r V.V.V.V.a.a.a.a.e.e.e.e.* * & & E.E.E.E.",
"E.E.E.E.# # # # L L L L <.<.<.<.^ ^ } } M.M.M.M.L.L.L.L.b.b.b.b.w.w.w.w.k k k k a a a a V.V.K.V.a.a.a.a.i i i i * * * * E.E.E.E.",
"E.E.E.E.# # # # L L L L <.<.<.<.^ ^ } } M.M.M.M.L.L.L.L.b.b.b.b.w.w.w.w.k k k k a a a a K.V.V.V.a.a.a.a.i i i i * * * * E.E.E.E.",
"E.E.E.E.# # # # L L L L <.<.<.<.^ ^ ^ ^ M.M.M.M.L.L.L.L.b.b.b.b.w.w.w.w.k k k k a a a a V.V.V.V.a.a.a.a.i i i i * * * * E.E.E.E.",
"E.E.E.E.# # # # L L L L <.<.<.<.^ ^ ^ ^ M.M.M.M.L.L.L.L.b.b.b.b.w.w.w.w.k k k k a a a a V.V.V.V.a.a.a.a.i i i i * * * * E.E.E.E.",
"E.E.E.E.3 3 3 3 n n n n x.x.x.x.4.4.4.4.o.o.o.o.&.&.&.&.} } } } g g g g I I I I ^ ^ ^ Q a.a.a.a.1.1.&.&.' ' ' ' * * * * E.E.E.E.",
"E.E.E.E.3 3 3 3 n n n n x.x.x.x.4.4.4.4.o.o.o.o.&.&.&.&.} } } } g g g g I I I I ^ ^ ^ ^ a.a.a.a.1.1.&.&.' ' ' ' * * * * E.E.E.E.",
"E._._.E.3 3 3 3 n n n n x.x.x.x.4.4.4.4.o.o.o.o.&.&.4.4.} } } } g g g g I I I I ! ^ ! ! a.a.a.a.1.&.&.&.' ' ' ' * * * * E.E.E.E.",
"E._.E.E.3 3 3 3 n n n n x.x.x.x.4.4.4.4.o.o.o.o.&.&.4.4.} } } } g g g g I I I I ! ! ! ! a.a.a.a.&.&.&.&.' ' ' ' * * * * E.E.E.E.",
"E.E.E.E.P.P.P.P.<.<.<.<.a.a.a.a.V.V.V.V.M.M.M.M.a.a.a.a.j.j.j.j.a.a.a.a.4.4.4.4.V.V.V.V.a.a.a.a.j.j.j.j.d d d d % % % % E.E._.E.",
"E.E.E.E.P.P.P.P.<.<.<.<.a.a.a.a.V.V.V.V.M.M.M.M.4.4.a.a.j.j.j.j.a.a.a.a.4.4.4.4.V.V.V.V.a.a.a.a.j.j.j.j.d d d d % % % % E._._.E.",
"E.(.E.E.P.P.P.P.<.<.<.<.a.a.j.a.V.V.V.V.M.M.M.M.4.4.4.4.j.j.j.j.a.a.a.a.4.4.4.4.V.V.V.V.a.a.a.a.j.j.j.j.d d d d % % % % E.E.E.E.",
"(.(.E.E.P.P.P.P.<.<.<.<.a.a.j.j.V.V.V.V.M.M.M.M.4.4.4.4.j.j.j.j.a.a.a.a.4.4.4.4.V.V.V.V.a.a.a.a.j.j.j.j.d d d d % % % % E.E.E.E.",
"E.E.E.E.& & & & b b b b Z Z Z Z u u u u ! ! ! Y o.o.o.o.&.&.&.&.Y Y Y Y D D D D u u u u r r r r B B B B z z z z % % % % E.E.E.E.",
"E.E.E.E.& & & & b b b b Z Z Z Z u u u u ! ! Y Y o.o.o.o.&.&.&.&.Y Y Y Y D D D D u u u u r r r r B B B B z z z z % % % % E.E.E.E.",
"E.E.E.E.& & * * b b b b Z Z Z Z u u u u ! ! ! ! &.&.o.o.&.&.&.&.Y Y Y Y D D D D u u u u r r r r B B B B z z z z % % % % E.E.E.E.",
"E.E.E.E.& * * * b b b b Z Z Z Z u u u u ! ! ! ! &.&.o.o.&.&.&.&.! Y Y Y D D D D u u u u r r r r B B B B z z z z % % % % E.E.E.E.",
"E.E.E.E.= = = = X X X X - - - - X X X X - - - - X X X X - - - - X X X X 3 3 3 3 . . . . # # # # X X X X - - - - & & & & E.E.E.E.",
"E.E.E.E.= = = = X X X X - - - - X X X X - - - - X X X X - - - - X X X X 3 3 3 3 . . . . # # # # X X X X - - - - & & & & E.E.E.E.",
"E.E.E.E.= = = = X X X X - - - - X X X X - - - - X X X X - - - - X X X X 3 3 3 3 . . . . # # # # X X X X - - - - & & & & E.E.E.E.",
"E.E.E.E.= = = = X X X X - - - - X X X X - - - - X X X X - - - - X X X X 3 3 3 3 . . . . # # # # X X X X - - - - & & & & E.E.E.E."
};
